<?xml version="1.0" encoding="UTF-8" standalone="no"?>
<svg
   xmlns:dc="http://purl.org/dc/elements/1.1/"
   xmlns:cc="http://creativecommons.org/ns#"
   xmlns:rdf="http://www.w3.org/1999/02/22-rdf-syntax-ns#"
   xmlns:svg="http://www.w3.org/2000/svg"
   xmlns="http://www.w3.org/2000/svg"
   xmlns:sodipodi="http://sodipodi.sourceforge.net/DTD/sodipodi-0.dtd"
   xmlns:inkscape="http://www.inkscape.org/namespaces/inkscape"
   x="0px"
   y="0px"
   width="30"
   height="30"
   viewBox="0 0 172 172"
   style=" fill:#fff;"
   version="1.1"
   id="svg841"
   sodipodi:docname="book-icon.svg"
   inkscape:version="1.0.2-2 (e86c870879, 2021-01-15)">
  <metadata
     id="metadata847">
    <rdf:RDF>
      <cc:Work
         rdf:about="">
        <dc:format>image/svg+xml</dc:format>
        <dc:type
           rdf:resource="http://purl.org/dc/dcmitype/StillImage" />
      </cc:Work>
    </rdf:RDF>
  </metadata>
  <defs
     id="defs845" />
  <sodipodi:namedview
     pagecolor="#ffffff"
     bordercolor="#666666"
     borderopacity="1"
     objecttolerance="10"
     gridtolerance="10"
     guidetolerance="10"
     inkscape:pageopacity="0"
     inkscape:pageshadow="2"
     inkscape:window-width="1366"
     inkscape:window-height="705"
     id="namedview843"
     showgrid="false"
     inkscape:zoom="17.933333"
     inkscape:cx="15"
     inkscape:cy="15"
     inkscape:window-x="-8"
     inkscape:window-y="-8"
     inkscape:window-maximized="1"
     inkscape:current-layer="g837" />
  <g
     fill="none"
     fill-rule="nonzero"
     stroke="none"
     stroke-width="1"
     stroke-linecap="butt"
     stroke-linejoin="miter"
     stroke-miterlimit="10"
     stroke-dasharray=""
     stroke-dashoffset="0"
     font-family="none"
     font-weight="none"
     font-size="none"
     text-anchor="none"
     style="mix-blend-mode: normal"
     id="g839">
    <path
       d="M0,172v-172h172v172z"
       fill="none"
       id="path833" />
    <g
       fill="#000000"
       id="g837">
      <path
         d="M41.28,6.88c-11.35469,0 -20.64,9.28531 -20.64,20.64v118.39781c0,10.92469 9.74219,19.20219 20.64,19.20219h110.08v-6.88h-110.08c-7.43094,0 -13.76,-5.57656 -13.76,-12.32219c0,-6.74563 6.19469,-11.75781 13.76,-11.75781h110.08v-127.28zM41.28,13.76h103.2v113.52h-103.2c-5.13312,0 -9.9975,1.85438 -13.76,4.87781v-104.63781c0,-7.6325 6.1275,-13.76 13.76,-13.76zM51.6,30.96c-3.7625,0 -6.88,3.1175 -6.88,6.88v13.76c0,3.7625 3.1175,6.88 6.88,6.88h72.24c3.7625,0 6.88,-3.1175 6.88,-6.88v-13.76c0,-3.7625 -3.1175,-6.88 -6.88,-6.88zM51.6,37.84h72.24v13.76h-72.24z"
         id="path835"
         style="fill:#ffffff" />
    </g>
  </g>
</svg>
