<svg xmlns="http://www.w3.org/2000/svg" x="0px" y="0px"
width="24" height="24"
viewBox="0 0 172 172"
style=" fill:#000000;"><g fill="none" fill-rule="nonzero" stroke="none" stroke-width="1" stroke-linecap="butt" stroke-linejoin="miter" stroke-miterlimit="10" stroke-dasharray="" stroke-dashoffset="0" font-family="none" font-weight="none" font-size="none" text-anchor="none" style="mix-blend-mode: normal"><path d="M0,172v-172h172v172z" fill="none"></path><g fill="#666666"><path d="M86,36.61719l11.05794,26.03516l3.38737,7.89453l8.56641,0.75586l28.16276,2.49153l-21.33203,18.56055l-6.49479,5.65494l1.93164,8.37044l6.35482,27.57487l-24.27149,-14.55729l-7.36263,-4.42317l-7.36263,4.42317l-24.27148,14.55729l6.35481,-27.57487l1.93165,-8.37044l-6.49479,-5.65494l-21.33203,-18.56055l28.16276,-2.46354l8.5664,-0.75586l3.38737,-7.92252l11.05794,-26.03516M86,0l-24.27149,57.05339l-61.72851,5.43099l46.75131,40.70443l-13.88542,60.38476l53.13411,-31.85808l53.13412,31.88607l-13.88542,-60.41276l46.7513,-40.70443l-61.72851,-5.43099z"></path></g></g></svg>